<?xml version="1.0" encoding="UTF-8"?>
<svg id="Layer_2" data-name="Layer 2" xmlns="http://www.w3.org/2000/svg" xmlns:xlink="http://www.w3.org/1999/xlink" viewBox="0 0 43.47 43.45">
  <defs>
    <style>
      .cls-1 {
        clip-path: url(#clippath);
      }

      .cls-2, .cls-3 {
        stroke-width: 0px;
      }

      .cls-2, .cls-4 {
        fill: none;
      }

      .cls-3 {
        fill: #bababd;
      }

      .cls-4 {
        stroke: #fff;
        stroke-width: .64px;
      }
    </style>
    <clipPath id="clippath">
      <rect class="cls-2" x="12.03" width="19.41" height="43.45"/>
    </clipPath>
  </defs>
  <g id="_レイヤー_6" data-name="レイヤー 6">
    <g>
      <path id="Path_22" data-name="Path 22" class="cls-2" d="M39.74,41.71H3.73c-2.06,0-3.73-1.67-3.73-3.73h0V5.47C0,3.41,1.67,1.74,3.73,1.74h36.01c2.06,0,3.73,1.67,3.73,3.73v32.5c0,2.06-1.67,3.73-3.73,3.74h0"/>
      <g id="Group_614" data-name="Group 614">
        <g class="cls-1">
          <g id="Group_613" data-name="Group 613">
            <g id="Group_607" data-name="Group 607">
              <path id="Path_329" data-name="Path 329" class="cls-3" d="M25.42,31.33l-.19.35c-1.06-.82-2.36-1.26-3.7-1.28-1.34.02-2.65.46-3.71,1.28l-.2-.35c-.06-.31-.1-.62-.1-.93,0-.93.31-1.84.88-2.58.75-.97,1.91-1.54,3.13-1.54,1.34,0,2.59.7,3.31,1.83.45.68.68,1.48.68,2.3,0,.31-.03.62-.1.93"/>
            </g>
            <g id="Group_608" data-name="Group 608">
              <path id="Path_330" data-name="Path 330" class="cls-3" d="M21.52,30.4c1.34.01,2.64.46,3.7,1.28,2.76,2,4.66,6.17,4.66,10.99H13.15c0-4.82,1.9-8.99,4.66-10.99,1.07-.81,2.37-1.26,3.71-1.28"/>
            </g>
            <g id="Group_609" data-name="Group 609">
              <path id="Path_331" data-name="Path 331" class="cls-3" d="M24.49,8.11c1.54,2.32,5.1,3.28,5.1,9.9-.03,3.78-1.69,7.36-4.56,9.83l-.19.25c-.72-1.13-1.97-1.82-3.32-1.83-1.23,0-2.38.57-3.13,1.54-.84-.66-6.56-4.79-5.54-12.4C14.47,3.15,26.1,1.08,26.1,1.08c0,0-3.16,4.7-1.61,7.03"/>
            </g>
            <g id="Group_610" data-name="Group 610">
              <path id="Path_332" data-name="Path 332" class="cls-4" d="M17.7,31.81c-2.85,2.04-4.8,6.3-4.8,11.22h17.25c0-4.92-1.96-9.18-4.8-11.22-1.1-.83-2.44-1.29-3.82-1.3-1.38.01-2.73.47-3.83,1.3ZM17.5,31.46c-.06-.31-.1-.63-.1-.95,0-.95.32-1.88.9-2.64,1.38-1.78,3.95-2.1,5.73-.71.36.28.67.62.92,1,.63.98.85,2.16.6,3.3M18.34,27.91s-.03-.02-.04-.03c-.87-.67-6.77-4.89-5.72-12.65C14.25,2.7,26.25.59,26.25.59c0,0-3.26,4.79-1.66,7.17,1.59,2.37,5.27,3.34,5.27,10.11-.04,3.87-1.76,7.53-4.71,10.04"/>
            </g>
            <g id="Group_611" data-name="Group 611">
              <path id="Path_333" data-name="Path 333" class="cls-3" d="M30.71,4.53c.08,1.28-.89,2.37-2.17,2.46-1.28-.09-2.24-1.18-2.17-2.46-.08-1.28.89-2.37,2.17-2.46,1.27.09,2.24,1.19,2.17,2.46"/>
            </g>
            <g id="Group_612" data-name="Group 612">
              <path id="Path_334" data-name="Path 334" class="cls-3" d="M31.44,9.65c.04.72-.5,1.34-1.22,1.39-.72-.05-1.26-.67-1.22-1.39-.04-.72.5-1.34,1.22-1.39.72.05,1.26.67,1.22,1.39"/>
            </g>
          </g>
        </g>
      </g>
    </g>
  </g>
</svg>