<svg xmlns="http://www.w3.org/2000/svg" width="31.271" height="31.271" viewBox="0 0 31.271 31.271">
  <g id="グループ_626" data-name="グループ 626" transform="translate(-208 -2327)">
    <path id="パス_344" data-name="パス 344" d="M8.109,351.451v-.31a9.545,9.545,0,0,0-.17-1.45,8.06,8.06,0,0,0-1.75-3.52,8.834,8.834,0,0,0-2-1.66,5.52,5.52,0,0,0-.64-.34,8.124,8.124,0,0,0-3.31-.72h-15.51a8.126,8.126,0,0,0-3.28.72,5.38,5.38,0,0,0-.6.34,8.641,8.641,0,0,0-2,1.66,8,8,0,0,0-1.81,3.52,7.713,7.713,0,0,0-.19,1.46V366.7a8.1,8.1,0,0,0,1.63,4.95c.06.08.12.14.18.21a8.928,8.928,0,0,0,1.1,1.1,8.188,8.188,0,0,0,3.3,1.58,7.834,7.834,0,0,0,1.8.18H.119a7.893,7.893,0,0,0,6.19-2.86l.18-.21a8,8,0,0,0,1.63-4.95v-3.89Q8.119,357.141,8.109,351.451Zm-20.995,16.274q-1.713-.008-3.426,0c-.176,0-.22-.054-.219-.225q.008-3,0-5.994t0-5.974c0-.182.036-.247.236-.245,1.141.011,2.283.008,3.425,0,.157,0,.2.042.2.2q-.006,6.015,0,12.031C-12.673,367.688-12.729,367.726-12.886,367.725Zm-1.7-14.138a2.234,2.234,0,0,1-2.243-2.218,2.236,2.236,0,0,1,2.189-2.252,2.243,2.243,0,0,1,2.279,2.228A2.244,2.244,0,0,1-14.591,353.587ZM1.57,367.726q-1.7-.012-3.4,0c-.193,0-.228-.066-.228-.242q.009-3.1,0-6.2a5.752,5.752,0,0,0-.173-1.551,1.689,1.689,0,0,0-1.707-1.351,2.019,2.019,0,0,0-2.12,1.129,3.347,3.347,0,0,0-.265.962,7.088,7.088,0,0,0-.065,1.019q0,2.967,0,5.932c0,.3,0,.3-.308.3-1.1,0-2.2,0-3.3.005-.2,0-.253-.062-.253-.259q.009-5.964,0-11.927c0-.2.048-.255.251-.253,1.079.011,2.158.009,3.237,0,.169,0,.23.037.224.216-.013.424-.005.849,0,1.274,0,.065-.026.138.032.2.08-.023.095-.1.132-.153a4.019,4.019,0,0,1,3.524-1.833,6.709,6.709,0,0,1,1.695.2,3.554,3.554,0,0,1,2.6,2.624,8.769,8.769,0,0,1,.34,2.451c.012,2.409.01,4.818.02,7.227C1.8,367.669,1.758,367.728,1.57,367.726Z" transform="translate(231.151 1983.549)" fill="#fff" fill-rule="evenodd"/>
  </g>
</svg>
