<?xml version="1.0" encoding="UTF-8"?>
<svg id="Layer_2" data-name="Layer 2" xmlns="http://www.w3.org/2000/svg" viewBox="0 0 43.87 39.97">
  <defs>
    <style>
      .cls-1 {
        fill: none;
      }

      .cls-1, .cls-2, .cls-3 {
        stroke-width: 0px;
      }

      .cls-2 {
        fill: #bababd;
      }

      .cls-3 {
        fill: #fff;
      }
    </style>
  </defs>
  <g id="_レイヤー_6" data-name="レイヤー 6">
    <g>
      <path id="Path_289-2" data-name="Path 289-2" class="cls-2" d="M40.1,39.97H3.77c-2.07,0-3.76-1.66-3.77-3.73h0V3.73C0,1.66,1.7,0,3.77,0h36.33c2.07,0,3.76,1.66,3.77,3.73h0v32.5c0,2.07-1.7,3.74-3.77,3.73"/>
      <path id="Path_290-2" data-name="Path 290-2" class="cls-1" d="M0,39.97h43.87V0H0v39.97Z"/>
      <path id="Path_292" data-name="Path 292" class="cls-3" d="M24.45,23.49v-2.71c0-4.47,3.55-6.6,7.22-6.6,3.39,0,6.57,1.98,6.57,5.98v2.83h-9.05v.62c0,1.65,1.61,2.4,3.13,2.4,1.39-.06,2.73-.53,3.86-1.34l1.78,2.6c-1.69,1.56-3.93,2.38-6.23,2.29-3.73,0-7.28-1.79-7.28-6.06M33.84,20.31v-.47c.08-1.16-.79-2.16-1.95-2.24-.11,0-.23,0-.34,0-1.21-.09-2.27.81-2.36,2.02,0,.1,0,.2,0,.3v.39h4.65Z"/>
      <path id="Path_293-2" data-name="Path 293-2" class="cls-1" d="M0,39.97h43.87V0H0v39.97Z"/>
      <path id="Path_294-2" data-name="Path 294-2" class="cls-3" d="M23.73,29.2l-7.39-20.34h-3.85l-7.39,20.34h5.22l1-3.05h6.25l.94,3.05h5.22ZM16.25,21.98h-3.54l1.83-5.42,1.71,5.42Z"/>
    </g>
  </g>
</svg>