<?xml version="1.0" encoding="UTF-8"?>
<svg id="Layer_2" data-name="Layer 2" xmlns="http://www.w3.org/2000/svg" viewBox="0 0 43.47 39.97">
  <defs>
    <style>
      .cls-1 {
        fill: none;
      }

      .cls-1, .cls-2, .cls-3 {
        stroke-width: 0px;
      }

      .cls-2 {
        fill: #bababd;
      }

      .cls-3 {
        fill: #fff;
      }
    </style>
  </defs>
  <g id="_レイヤー_6" data-name="レイヤー 6">
    <g>
      <path id="Path_303" data-name="Path 303" class="cls-2" d="M39.74,39.97H3.73c-2.06,0-3.73-1.67-3.73-3.73h0V3.73C0,1.67,1.67,0,3.73,0h36.01c2.06,0,3.73,1.67,3.73,3.73v32.5c0,2.06-1.67,3.73-3.73,3.74h0"/>
      <path id="Path_304-2" data-name="Path 304-2" class="cls-3" d="M15.69,9.28h-4.99v20.34h4.99V9.28ZM15.69,29.62h17.09V9.28h-4.68v6.08c-.94-.83-2.17-1.26-3.42-1.2-1.28-.09-2.55.34-3.51,1.19-.75.7-1.25,1.64-1.41,2.65-.16,1.31-.23,2.63-.21,3.96v.85c-.02,1.11.08,2.21.28,3.3.21.96.7,1.83,1.41,2.51.95.83,2.2,1.24,3.47,1.14.68.02,1.36-.1,2-.36.58-.26,1.1-.62,1.54-1.07v1.28h-12.55ZM27.74,19.15c.28.89.41,1.83.36,2.77.05.94-.07,1.87-.36,2.77-.28.6-.93.95-1.58.86-.66.09-1.3-.26-1.58-.86-.28-.89-.4-1.83-.36-2.77-.05-.94.07-1.87.36-2.77.29-.6.93-.95,1.58-.85.66-.09,1.3.26,1.58.85"/>
      <path id="Path_305" data-name="Path 305" class="cls-1" d="M0,39.97h43.47V0H0v39.97Z"/>
    </g>
  </g>
</svg>