<?xml version="1.0" encoding="UTF-8"?>
<svg id="Layer_2" data-name="Layer 2" xmlns="http://www.w3.org/2000/svg" viewBox="0 0 43.47 39.97">
  <defs>
    <style>
      .cls-1 {
        fill: #bababd;
      }

      .cls-1, .cls-2 {
        stroke-width: 0px;
      }

      .cls-2 {
        fill: #fff;
      }
    </style>
  </defs>
  <g id="_レイヤー_6" data-name="レイヤー 6">
    <g>
      <path id="Path_303-2" data-name="Path 303-2" class="cls-1" d="M39.74,39.97H3.73c-2.06,0-3.73-1.67-3.73-3.73h0V3.73C0,1.67,1.67,0,3.73,0h36.01c2.06,0,3.73,1.67,3.73,3.73v32.5c0,2.06-1.67,3.73-3.73,3.73h0"/>
      <rect id="Rectangle_412" data-name="Rectangle 412" class="cls-1" x="0" y="0" width="43.47" height="39.97"/>
      <path id="Path_360" data-name="Path 360" class="cls-2" d="M17.68,20.31l6.51-10.34h-5.67l-3.62,6.19-4.12-6.19h-5.81l6.71,10.07-6.57,10.42h5.66l3.68-6.28,4.18,6.28h5.81l-6.78-10.16Z"/>
      <path id="Path_304" data-name="Path 304" class="cls-2" d="M21.41,30.31h17.09V9.97h-4.68v6.08c-.94-.83-2.17-1.26-3.42-1.2-1.28-.09-2.55.34-3.51,1.19-.75.7-1.25,1.64-1.41,2.65-.16,1.31-.23,2.63-.21,3.95v.85c-.02,1.11.08,2.21.28,3.3.21.96.7,1.83,1.41,2.51.95.83,2.2,1.24,3.47,1.14.68.02,1.36-.1,2-.36.58-.26,1.1-.62,1.54-1.07v1.28h-12.55ZM33.46,19.84c.48,1.81.48,3.72,0,5.54-.57.87-1.74,1.12-2.62.55-.22-.14-.4-.33-.55-.55-.47-1.82-.47-3.72,0-5.54.58-.87,1.75-1.12,2.62-.54.22.14.4.33.54.54"/>
    </g>
  </g>
</svg>