<svg xmlns="http://www.w3.org/2000/svg" width="31.271" height="31.271" viewBox="0 0 31.271 31.271">
  <g id="Layer_2" data-name="Layer 2" transform="translate(0)">
    <g id="Layer_1" data-name="Layer 1">
      <path id="パス_2" data-name="パス 2" d="M15.64,8.71a6.93,6.93,0,0,0,0,13.86,6.93,6.93,0,0,0,0-13.86Z" fill="#fff" fill-rule="evenodd"/>
      <path id="パス_3" data-name="パス 3" d="M31.26,8V7.69a9.59,9.59,0,0,0-.17-1.45,8.07,8.07,0,0,0-1.75-3.52,8.85,8.85,0,0,0-2-1.66A5.62,5.62,0,0,0,26.7.72,8.14,8.14,0,0,0,23.39,0H7.88A8.14,8.14,0,0,0,4.6.72a5.49,5.49,0,0,0-.6.34A8.64,8.64,0,0,0,2,2.72,8,8,0,0,0,.19,6.24,7.68,7.68,0,0,0,0,7.7Q0,7.865,0,8V23.25A8.1,8.1,0,0,0,1.63,28.2c.06.08.12.14.18.21a8.79,8.79,0,0,0,1.1,1.1,8.17,8.17,0,0,0,3.3,1.58,7.8,7.8,0,0,0,1.8.18H23.27a7.89,7.89,0,0,0,6.19-2.86l.18-.21a8,8,0,0,0,1.63-4.95V19.36Q31.27,13.69,31.26,8ZM21.84,21.84a8.77,8.77,0,1,1,2.58-6.2A8.77,8.77,0,0,1,21.84,21.84ZM25.07,8.4a1.69,1.69,0,1,1,1.69-1.69A1.69,1.69,0,0,1,25.07,8.4Z" fill="#fff" fill-rule="evenodd"/>
    </g>
  </g>
</svg>
