<?xml version="1.0" encoding="UTF-8"?>
<svg id="Layer_2" data-name="Layer 2" xmlns="http://www.w3.org/2000/svg" viewBox="0 0 43.47 39.97">
  <defs>
    <style>
      .cls-1 {
        fill: none;
      }

      .cls-1, .cls-2, .cls-3 {
        stroke-width: 0px;
      }

      .cls-2 {
        fill: #bababd;
      }

      .cls-3 {
        fill: #fff;
      }
    </style>
  </defs>
  <g id="_レイヤー_6" data-name="レイヤー 6">
    <g>
      <path id="Path_303" data-name="Path 303" class="cls-2" d="M39.74,39.97H3.73c-2.06,0-3.73-1.67-3.73-3.73h0V3.73C0,1.67,1.67,0,3.73,0h36.01c2.06,0,3.73,1.67,3.73,3.73v32.5c0,2.06-1.67,3.73-3.73,3.74h0"/>
      <path id="Path_305" data-name="Path 305" class="cls-1" d="M0,39.97h43.47V0H0v39.97Z"/>
      <path id="Path_306" data-name="Path 306" class="cls-3" d="M38.65,21.58c-.17-1.17-.54-2.31-1.09-3.35-.76-1.42-1.82-2.65-3.1-3.62-.9-.69-1.8-1.38-2.7-2.07-2.65-2.04-5.3-4.08-7.96-6.11-.2-.16-.43-.27-.67-.34-.14-.04-.29-.07-.44-.08-.55-.06-1.11.08-1.57.38-.23.14-.41.35-.53.59-.22.4-.17.89.13,1.24.1.12.22.23.35.33l4.24,3.45s.07.04.07.08c-.04.03-.09.02-.14.02-1.68,0-3.35,0-5.03,0h-8.42c-.58,0-1.15.17-1.63.5-.35.23-.63.56-.79.95-.21.46-.13.99.19,1.38.16.2.37.35.61.44.3.12.62.18.94.17,1.21,0,2.41,0,3.62-.01h3.08s.07-.02.1.03c-.03.03-.07.05-.1.08l-9.75,7.46c-.87.67-1.75,1.33-2.61,2-.62.46-1.03,1.16-1.11,1.94-.1.74.28,1.46.94,1.8.47.24,1.02.31,1.53.19.54-.11,1.04-.35,1.46-.71,2.18-1.79,4.37-3.58,6.55-5.37.03-.04.07-.06.12-.07,0,.08-.01.15-.02.22-.06.46-.07.92-.01,1.37.1.83.32,1.64.63,2.41.67,1.63,1.73,3.06,3.08,4.19,2.11,1.77,4.75,2.79,7.5,2.89.93.05,1.86,0,2.78-.16,1.1-.18,2.17-.5,3.18-.96,1.93-.86,3.59-2.23,4.81-3.96,1.05-1.49,1.69-3.24,1.84-5.06.06-.74.04-1.48-.07-2.22ZM32.91,25.73c-.94,1.3-2.29,2.25-3.84,2.68-.87.26-1.79.37-2.7.31-1.37-.05-2.7-.48-3.85-1.23-1.21-.77-2.14-1.92-2.65-3.27-.33-.88-.44-1.82-.33-2.75.16-1.47.84-2.84,1.92-3.86.99-.97,2.24-1.64,3.6-1.93.6-.13,1.21-.2,1.82-.2,1.72,0,3.39.58,4.74,1.65,1.1.84,1.9,2.02,2.26,3.36.51,1.8.15,3.73-.97,5.23h0Z"/>
      <path id="Path_307" data-name="Path 307" class="cls-3" d="M26.88,17.58c1.33,0,2.6.55,3.5,1.52.77.79,1.16,1.88,1.08,2.98-.05.84-.38,1.63-.92,2.27-.64.78-1.53,1.33-2.52,1.55-1.25.32-2.58.14-3.7-.52-.92-.5-1.62-1.33-1.95-2.32-.48-1.35-.16-2.86.82-3.9.68-.76,1.58-1.28,2.58-1.46.36-.07.73-.11,1.1-.11Z"/>
    </g>
  </g>
</svg>