<svg xmlns="http://www.w3.org/2000/svg" width="35.3" height="31.3" viewBox="0 0 35.3 31.3">
  <g id="Layer_2" data-name="Layer 2" transform="translate(0 0)">
    <g id="Layer_1" data-name="Layer 1">
      <path id="パス_1" data-name="パス 1" d="M27.6,0H7.6A7.64,7.64,0,0,0,0,7.65v16A7.64,7.64,0,0,0,7.65,31.3h20a7.65,7.65,0,0,0,7.65-7.65v-16A7.65,7.65,0,0,0,27.6,0Zm3.89,8.37L18.15,17.53a.94.94,0,0,1-1,0L3.76,8.37a.92.92,0,1,1,1-1.52l12.82,8.79L30.44,6.85a.92.92,0,0,1,1,1.52Z" fill="#fff" fill-rule="evenodd"/>
    </g>
  </g>
</svg>
