<svg xmlns="http://www.w3.org/2000/svg" width="31.271" height="31.271" viewBox="0 0 31.271 31.271">
  <g id="Layer_2" data-name="Layer 2" transform="translate(0.001 0)">
    <g id="Layer_1" data-name="Layer 1">
      <path id="パス_4" data-name="パス 4" d="M9.48,16.42H7.16v4.95H9.48a4.7,4.7,0,0,0,2.65-.63,2.21,2.21,0,0,0,.93-2,2,2,0,0,0-.92-1.8,5.19,5.19,0,0,0-2.66-.52Z" fill="#fff" fill-rule="evenodd"/>
      <path id="パス_5" data-name="パス 5" d="M22,13.82a2.55,2.55,0,0,0-1.36.4,2.79,2.79,0,0,0-1.09,1.26,4.34,4.34,0,0,0-.35,1.29h5.21a3.41,3.41,0,0,0-.61-2.18,2.12,2.12,0,0,0-1.8-.77Z" fill="#fff" fill-rule="evenodd"/>
      <path id="パス_6" data-name="パス 6" d="M11.52,14.13a2,2,0,0,0,.74-1.6,1.77,1.77,0,0,0-.77-1.62,4.54,4.54,0,0,0-2.3-.47h-2v4.28h2A3.86,3.86,0,0,0,11.52,14.13Z" fill="#fff" fill-rule="evenodd"/>
      <path id="パス_7" data-name="パス 7" d="M31.27,8V7.68a8.7,8.7,0,0,0-.17-1.46A8.07,8.07,0,0,0,29.35,2.7a8.81,8.81,0,0,0-2-1.65,6.61,6.61,0,0,0-.64-.34A7.94,7.94,0,0,0,23.39,0H7.89A8,8,0,0,0,4.6.72a6.47,6.47,0,0,0-.6.34A8.61,8.61,0,0,0,2,2.71,8.07,8.07,0,0,0,.19,6.23,7.88,7.88,0,0,0,0,7.7c0,.1,0,.21,0,.3V23.25A8,8,0,0,0,1.63,28.2c.07.07.12.14.18.21a8.79,8.79,0,0,0,1.1,1.1,8.28,8.28,0,0,0,3.31,1.58A7.66,7.66,0,0,0,8,31.27H23.27a7.72,7.72,0,0,0,1.79-.18,8.41,8.41,0,0,0,3.31-1.58,9.52,9.52,0,0,0,1.1-1.1l.17-.21a8,8,0,0,0,1.63-4.95ZM14.56,21.27a4.27,4.27,0,0,1-2,1.4,8.13,8.13,0,0,1-2.86.46H4.91V8.67H9.39A9.53,9.53,0,0,1,12,9a3.69,3.69,0,0,1,1.8,1.13,3.19,3.19,0,0,1,.65,2.09,3.7,3.7,0,0,1-.53,1.92,2.7,2.7,0,0,1-1.52,1.21v.09a3.68,3.68,0,0,1,2.05,1.1,3.33,3.33,0,0,1,.79,2.34,3.86,3.86,0,0,1-.68,2.39ZM19,8.43h6v1.5H19Zm7.3,9.37a4.721,4.721,0,0,1-.06.52h-7.1A4.11,4.11,0,0,0,19.61,20a3.09,3.09,0,0,0,1.28,1.28,3.6,3.6,0,0,0,1.7.42A4,4,0,0,0,24,21.43a5.63,5.63,0,0,0,1.21-.59L26,22.25a8.28,8.28,0,0,1-1.66.82,6.15,6.15,0,0,1-2,.32,5.3,5.3,0,0,1-2.65-.67,4.9,4.9,0,0,1-1.89-1.94,6.06,6.06,0,0,1-.71-3,6.08,6.08,0,0,1,.71-3,5.07,5.07,0,0,1,1.83-2A4.47,4.47,0,0,1,22,12.07a4.38,4.38,0,0,1,2.42.64A4,4,0,0,1,25.9,14.5a6.73,6.73,0,0,1,.49,2.67c-.03.21-.03.42-.05.63Z" fill="#fff" fill-rule="evenodd"/>
    </g>
  </g>
</svg>
