<?xml version="1.0" encoding="UTF-8"?>
<svg id="Layer_2" data-name="Layer 2" xmlns="http://www.w3.org/2000/svg" viewBox="0 0 43.48 39.97">
  <defs>
    <style>
      .cls-1 {
        fill: none;
      }

      .cls-1, .cls-2, .cls-3 {
        stroke-width: 0px;
      }

      .cls-2 {
        fill: #bababd;
      }

      .cls-3 {
        fill: #fff;
      }
    </style>
  </defs>
  <g id="_レイヤー_6" data-name="レイヤー 6">
    <g>
      <path id="Path_35" data-name="Path 35" class="cls-2" d="M39.74,39.97H3.73c-2.06,0-3.73-1.67-3.73-3.73V3.73C0,1.67,1.67,0,3.73,0h36.01c2.06,0,3.73,1.67,3.73,3.73h0v32.5c0,2.06-1.67,3.73-3.73,3.73"/>
      <path id="Path_36" data-name="Path 36" class="cls-3" d="M20.65,20.87c1.21-1.22,1.88-2.88,1.86-4.59.03-1.72-.63-3.38-1.84-4.61-1.35-1.33-3.2-2.03-5.09-1.93H7.53v20.34h4.99v-7.28h3.05c1.89.1,3.74-.6,5.08-1.94M16.93,14.83c.38.38.59.9.59,1.44,0,.54-.21,1.06-.59,1.44-.42.42-.99.64-1.58.61h-2.83v-4.11h2.83c.59-.03,1.17.19,1.58.61M35.66,28.91c1.26-.88,1.97-2.35,1.88-3.88.04-1.17-.38-2.31-1.16-3.18-.93-.92-2.16-1.45-3.47-1.5l-2.37-.23c-.55-.06-.85-.18-.91-.37-.05-.16-.08-.32-.09-.49.02-.25.17-.47.38-.6.34-.21.73-.31,1.13-.29.64,0,1.28.06,1.9.2.51.11.98.35,1.35.71l2.88-2.88c-.7-.71-1.58-1.22-2.54-1.48-1.15-.29-2.33-.42-3.51-.4-1.54-.03-3.04.44-4.28,1.34-1.2.86-1.88,2.26-1.82,3.74-.09,1.18.33,2.35,1.17,3.19.93.76,2.08,1.2,3.28,1.26l2.37.23c.32,0,.63.11.87.33.16.18.25.41.24.64,0,.36-.22.62-.66.77-.43.15-.88.23-1.34.23-.75.02-1.51-.08-2.23-.31-.57-.21-1.09-.54-1.51-.97l-3.02,3.02c.8.87,1.82,1.5,2.95,1.84,1.22.28,2.47.41,3.72.38,1.69.07,3.35-.39,4.76-1.31"/>
      <path id="Path_37" data-name="Path 37" class="cls-1" d="M0,39.97h43.47V0H0v39.97Z"/>
    </g>
  </g>
</svg>