<svg xmlns="http://www.w3.org/2000/svg" width="95.299" height="95.384" viewBox="0 0 95.299 95.384">
  <g id="グループ_454" data-name="グループ 454" transform="translate(-46.701 -50)">
    <g id="グループ_414" data-name="グループ 414" transform="translate(-86.093 24.967)">
      <path id="パス_269" data-name="パス 269" d="M171.875,29.061c.09-.353-.837-1.059-1.511-1.66a.885.885,0,0,1,.07-1.367l.967-.719a6.089,6.089,0,0,1,2.383,0s24.392-1.976,26.371,10.627c1.7,10.868-4.772,13.356-4.772,13.356l3.077,2.014a1.291,1.291,0,0,1,.575,1.235L198.859,54l.408.41a4.3,4.3,0,0,1-3.784,1.839c-3.9,0-10.042-5.667-10.416-5.414v3.335a1.372,1.372,0,0,1,0,1.433c-.687.908-4.332.238-4.332.238s-5.208-.492-5.958-1.309-.653-1.35-.653-1.35l-.9-1.148a2.294,2.294,0,0,1-.476-1.124C172.25,47.081,171.753,29.558,171.875,29.061Z" fill="#f88154"/>
      <path id="パス_270" data-name="パス 270" d="M203.165,27.773s-1.7-.852-1.773-1.5,1.126-1.147,1.773-1.089,6.882.612,6.882.612,14.735.56,15.295,1.873a2.748,2.748,0,0,1,.1,2.215s.975.259,1.022.886-.887,1.225-1.16,1.771-6.267.681-6.267.681l.134,5.111s4.394.137,4.7.477.681.75.681.75,1.178.476,1.04,1.32S219.79,44.4,219.79,44.4l-.2,6.61s7.736,1.04,7.972,1.7a3.474,3.474,0,0,1-1.022,2.591,55.723,55.723,0,0,1-12.148,1.428c-4.771-.186-8.5-1.416-8.769-1.907C203.759,51.391,203.165,27.773,203.165,27.773Z" fill="#f88154"/>
      <path id="パス_271" data-name="パス 271" d="M177.4,61.127c7.469-4.218,15.126-.652,15.672.263a8.76,8.76,0,0,1,.545,3.2l.744,7.631s1.5-10.245,2.321-11.683,8.926-.652,9.608,0,3.093,11.07,3.093,11.07l.857-5.842s.229-3.932,1.5-4.444c1.635-.652,12.742-.132,15.469,1.307s-1.569,24.042-2.795,25.675c-.628.839-2.454,1.966-8.516,2.356s-8.859-1.632-9.54-2.222-4.634-9.733-4.634-9.733-4.634,9.471-7.017,10.513-9.88.856-11.311.135-3.817-4.048-4.361-5.095S174.432,62.8,177.4,61.127Z" fill="#f88154"/>
      <path id="パス_272" data-name="パス 272" d="M136.186,33.251a3.734,3.734,0,0,0-1.575-2.569,6.061,6.061,0,0,1-.752-.586,5.776,5.776,0,0,1-1.046-3.079c-.06-1.18-.145-1.285,2.766-1.136a10.533,10.533,0,0,0,1.9-.079c16.538-2.169,25.633.3,29.183,6.806,3.618,6.631,1.535,19.33-2.2,20.49,11.387,1.432,8.642,28.042,5.524,32.243-3.985,5.369-4.586,4.036-8,4.566-3.594.561-20.417.651-20.417.651s-3.617.486-4.487,0-1.375-2.093-1.329-3.276,1.531-2.247,1.531-2.247l-.192-.643a5.775,5.775,0,0,1,.145-3.726l.761-1.976S137.615,42.571,136.186,33.251Z" fill="#f88154"/>
    </g>
    <path id="パス_290" data-name="パス 290" d="M6.432-1.6A3.947,3.947,0,0,1,2.5-5.6a3.88,3.88,0,0,1,3.856-4A3.7,3.7,0,0,1,9.184-8.432L10.5-9.712a5.544,5.544,0,0,0-4.144-1.68A5.685,5.685,0,0,0,.544-5.6,5.752,5.752,0,0,0,6.432.192a6.116,6.116,0,0,0,4.144-1.408V-6.3H6.144v1.792H8.688v2.368A3.693,3.693,0,0,1,6.432-1.6Zm9.392.192c-.592,0-1.376-.176-1.376-.976,0-.816.816-1.072,1.408-1.072a3.834,3.834,0,0,1,1.728.384v.784A2.249,2.249,0,0,1,15.824-1.408Zm.224-6.368a7.681,7.681,0,0,0-2.992.688L13.68-5.5a6.155,6.155,0,0,1,2.272-.56c.672,0,1.632.32,1.632,1.312v.432a3.685,3.685,0,0,0-2.112-.544A2.725,2.725,0,0,0,12.5-2.352,2.564,2.564,0,0,0,15.232.192a3.07,3.07,0,0,0,2.5-1.152V0H19.5V-4.944C19.5-6.672,18.224-7.776,16.048-7.776ZM22.128,0H23.9V-.992A2.622,2.622,0,0,0,26.192.192a3.81,3.81,0,0,0,3.7-3.984,3.81,3.81,0,0,0-3.7-3.984,2.7,2.7,0,0,0-2.144.992V-12.1h-1.92Zm1.92-4.928a2.1,2.1,0,0,1,1.808-1.056,2.029,2.029,0,0,1,2.08,2.192A2.029,2.029,0,0,1,25.856-1.6a2.1,2.1,0,0,1-1.808-1.056ZM32.08,0H34V-7.584H32.08Zm-.3-10.032A1.257,1.257,0,0,0,33.04-8.768,1.257,1.257,0,0,0,34.3-10.032,1.257,1.257,0,0,0,33.04-11.3,1.257,1.257,0,0,0,31.776-10.032ZM42.112,0h4.032c2.112,0,3.744-1.344,3.744-3.312a2.612,2.612,0,0,0-1.744-2.624A2.3,2.3,0,0,0,49.312-8c0-2.352-1.744-3.2-3.568-3.2H42.112ZM46.08-1.824H44.032V-4.8H46.08c1.056,0,1.856.432,1.856,1.488S47.136-1.824,46.08-1.824Zm-2.048-4.8V-9.376H45.68c.944,0,1.68.4,1.68,1.376s-.608,1.376-1.68,1.376ZM55.7-7.776a2.469,2.469,0,0,0-2.064,1.3v-1.1H51.808V0h1.92V-4.96a2.005,2.005,0,0,1,1.7-1.024,2.205,2.205,0,0,1,.912.176l.672-1.728A4.127,4.127,0,0,0,55.7-7.776Zm5.824,0a3.829,3.829,0,0,0-3.808,3.984A3.986,3.986,0,0,0,61.792.192,4.857,4.857,0,0,0,64.832-.9l-.96-1.44a3.052,3.052,0,0,1-2.08.768A2.165,2.165,0,0,1,59.664-3.1h5.664c.016-.288.016-.576.016-.72A3.814,3.814,0,0,0,61.52-7.776ZM59.664-4.5A1.745,1.745,0,0,1,61.52-6.032a1.763,1.763,0,0,1,1.9,1.536ZM66.08-7.584,69.744.384l2.4-5.408L74.576.384,78.24-7.584H76.288L74.656-3.7l-1.6-3.888H71.44L69.792-3.7,68.224-7.584Zm16.7-.192a3.829,3.829,0,0,0-3.808,3.984A3.986,3.986,0,0,0,83.056.192,4.857,4.857,0,0,0,86.1-.9l-.96-1.44a3.052,3.052,0,0,1-2.08.768A2.165,2.165,0,0,1,80.928-3.1h5.664c.016-.288.016-.576.016-.72A3.814,3.814,0,0,0,82.784-7.776ZM80.928-4.5a1.745,1.745,0,0,1,1.856-1.536,1.763,1.763,0,0,1,1.9,1.536Zm11.456-3.28a2.47,2.47,0,0,0-2.064,1.3v-1.1H88.5V0h1.92V-4.96a2.005,2.005,0,0,1,1.7-1.024,2.205,2.205,0,0,1,.912.176L93.7-7.536A4.127,4.127,0,0,0,92.384-7.776Z" transform="translate(47 145)"/>
  </g>
</svg>
